<mxfile host="app.diagrams.net" modified="2023-05-22T02:07:15.719Z" agent="Mozilla/5.0 (Windows NT 10.0; Win64; x64) AppleWebKit/537.36 (KHTML, like Gecko) Chrome/113.0.0.0 Safari/537.36 Edg/113.0.1774.50" etag="C2SvEb51k_01HYfiDWaS" version="21.3.2" type="github">
  <diagram name="第 1 页" id="I5sv1KSB5juOMJJ-7vlm">
    <mxGraphModel dx="996" dy="573" grid="0" gridSize="10" guides="1" tooltips="1" connect="1" arrows="1" fold="1" page="1" pageScale="1" pageWidth="827" pageHeight="1169" math="0" shadow="0">
      <root>
        <mxCell id="0" />
        <mxCell id="1" parent="0" />
        <mxCell id="9taYBYFdXNEDxt5BaycF-1" value="健康指标表" style="rounded=0;whiteSpace=wrap;html=1;" vertex="1" parent="1">
          <mxGeometry x="340" y="270" width="110" height="40" as="geometry" />
        </mxCell>
        <mxCell id="9taYBYFdXNEDxt5BaycF-2" value="BMI最高范围" style="ellipse;whiteSpace=wrap;html=1;" vertex="1" parent="1">
          <mxGeometry x="140" y="265" width="100" height="50" as="geometry" />
        </mxCell>
        <mxCell id="9taYBYFdXNEDxt5BaycF-3" value="id" style="ellipse;whiteSpace=wrap;html=1;" vertex="1" parent="1">
          <mxGeometry x="180" y="190" width="100" height="50" as="geometry" />
        </mxCell>
        <mxCell id="9taYBYFdXNEDxt5BaycF-4" value="性别" style="ellipse;whiteSpace=wrap;html=1;" vertex="1" parent="1">
          <mxGeometry x="310" y="180" width="100" height="50" as="geometry" />
        </mxCell>
        <mxCell id="9taYBYFdXNEDxt5BaycF-5" value="年龄" style="ellipse;whiteSpace=wrap;html=1;" vertex="1" parent="1">
          <mxGeometry x="450" y="180" width="100" height="50" as="geometry" />
        </mxCell>
        <mxCell id="9taYBYFdXNEDxt5BaycF-6" value="BMI最低范围" style="ellipse;whiteSpace=wrap;html=1;" vertex="1" parent="1">
          <mxGeometry x="180" y="340" width="100" height="50" as="geometry" />
        </mxCell>
        <mxCell id="9taYBYFdXNEDxt5BaycF-7" value="体重最高范围" style="ellipse;whiteSpace=wrap;html=1;" vertex="1" parent="1">
          <mxGeometry x="310" y="350" width="100" height="50" as="geometry" />
        </mxCell>
        <mxCell id="9taYBYFdXNEDxt5BaycF-8" value="体重最低范围" style="ellipse;whiteSpace=wrap;html=1;" vertex="1" parent="1">
          <mxGeometry x="450" y="350" width="100" height="50" as="geometry" />
        </mxCell>
        <mxCell id="9taYBYFdXNEDxt5BaycF-9" value="身高最低范围" style="ellipse;whiteSpace=wrap;html=1;" vertex="1" parent="1">
          <mxGeometry x="540" y="220" width="100" height="50" as="geometry" />
        </mxCell>
        <mxCell id="9taYBYFdXNEDxt5BaycF-10" value="身高最高范围" style="ellipse;whiteSpace=wrap;html=1;" vertex="1" parent="1">
          <mxGeometry x="530" y="290" width="100" height="50" as="geometry" />
        </mxCell>
        <mxCell id="9taYBYFdXNEDxt5BaycF-11" value="" style="endArrow=classic;html=1;rounded=0;entryX=1;entryY=0;entryDx=0;entryDy=0;exitX=0;exitY=1;exitDx=0;exitDy=0;" edge="1" parent="1" source="9taYBYFdXNEDxt5BaycF-1" target="9taYBYFdXNEDxt5BaycF-6">
          <mxGeometry width="50" height="50" relative="1" as="geometry">
            <mxPoint x="40" y="370" as="sourcePoint" />
            <mxPoint x="90" y="320" as="targetPoint" />
          </mxGeometry>
        </mxCell>
        <mxCell id="9taYBYFdXNEDxt5BaycF-12" value="" style="endArrow=classic;html=1;rounded=0;entryX=1;entryY=1;entryDx=0;entryDy=0;exitX=0;exitY=0;exitDx=0;exitDy=0;" edge="1" parent="1" source="9taYBYFdXNEDxt5BaycF-1" target="9taYBYFdXNEDxt5BaycF-3">
          <mxGeometry width="50" height="50" relative="1" as="geometry">
            <mxPoint x="50" y="380" as="sourcePoint" />
            <mxPoint x="100" y="330" as="targetPoint" />
          </mxGeometry>
        </mxCell>
        <mxCell id="9taYBYFdXNEDxt5BaycF-13" value="" style="endArrow=classic;html=1;rounded=0;entryX=1;entryY=0.5;entryDx=0;entryDy=0;exitX=0;exitY=0.5;exitDx=0;exitDy=0;" edge="1" parent="1" source="9taYBYFdXNEDxt5BaycF-1" target="9taYBYFdXNEDxt5BaycF-2">
          <mxGeometry width="50" height="50" relative="1" as="geometry">
            <mxPoint x="60" y="390" as="sourcePoint" />
            <mxPoint x="110" y="340" as="targetPoint" />
          </mxGeometry>
        </mxCell>
        <mxCell id="9taYBYFdXNEDxt5BaycF-14" value="" style="endArrow=classic;html=1;rounded=0;entryX=0.5;entryY=0;entryDx=0;entryDy=0;exitX=0.25;exitY=1;exitDx=0;exitDy=0;" edge="1" parent="1" source="9taYBYFdXNEDxt5BaycF-1" target="9taYBYFdXNEDxt5BaycF-7">
          <mxGeometry width="50" height="50" relative="1" as="geometry">
            <mxPoint x="70" y="400" as="sourcePoint" />
            <mxPoint x="120" y="350" as="targetPoint" />
          </mxGeometry>
        </mxCell>
        <mxCell id="9taYBYFdXNEDxt5BaycF-15" value="" style="endArrow=classic;html=1;rounded=0;entryX=0;entryY=0;entryDx=0;entryDy=0;exitX=0.75;exitY=1;exitDx=0;exitDy=0;" edge="1" parent="1" source="9taYBYFdXNEDxt5BaycF-1" target="9taYBYFdXNEDxt5BaycF-8">
          <mxGeometry width="50" height="50" relative="1" as="geometry">
            <mxPoint x="80" y="410" as="sourcePoint" />
            <mxPoint x="130" y="360" as="targetPoint" />
          </mxGeometry>
        </mxCell>
        <mxCell id="9taYBYFdXNEDxt5BaycF-16" value="" style="endArrow=classic;html=1;rounded=0;entryX=0;entryY=0.5;entryDx=0;entryDy=0;exitX=1;exitY=0.5;exitDx=0;exitDy=0;" edge="1" parent="1" source="9taYBYFdXNEDxt5BaycF-1" target="9taYBYFdXNEDxt5BaycF-10">
          <mxGeometry width="50" height="50" relative="1" as="geometry">
            <mxPoint x="433" y="320" as="sourcePoint" />
            <mxPoint x="465" y="367" as="targetPoint" />
          </mxGeometry>
        </mxCell>
        <mxCell id="9taYBYFdXNEDxt5BaycF-17" value="" style="endArrow=classic;html=1;rounded=0;entryX=0;entryY=0.5;entryDx=0;entryDy=0;exitX=1;exitY=0;exitDx=0;exitDy=0;" edge="1" parent="1" source="9taYBYFdXNEDxt5BaycF-1" target="9taYBYFdXNEDxt5BaycF-9">
          <mxGeometry width="50" height="50" relative="1" as="geometry">
            <mxPoint x="443" y="330" as="sourcePoint" />
            <mxPoint x="475" y="377" as="targetPoint" />
          </mxGeometry>
        </mxCell>
        <mxCell id="9taYBYFdXNEDxt5BaycF-18" value="" style="endArrow=classic;html=1;rounded=0;entryX=0.244;entryY=1.036;entryDx=0;entryDy=0;exitX=0.75;exitY=0;exitDx=0;exitDy=0;entryPerimeter=0;" edge="1" parent="1" source="9taYBYFdXNEDxt5BaycF-1" target="9taYBYFdXNEDxt5BaycF-5">
          <mxGeometry width="50" height="50" relative="1" as="geometry">
            <mxPoint x="453" y="340" as="sourcePoint" />
            <mxPoint x="485" y="387" as="targetPoint" />
          </mxGeometry>
        </mxCell>
        <mxCell id="9taYBYFdXNEDxt5BaycF-19" value="" style="endArrow=classic;html=1;rounded=0;entryX=0.5;entryY=1;entryDx=0;entryDy=0;exitX=0.25;exitY=0;exitDx=0;exitDy=0;" edge="1" parent="1" source="9taYBYFdXNEDxt5BaycF-1" target="9taYBYFdXNEDxt5BaycF-4">
          <mxGeometry width="50" height="50" relative="1" as="geometry">
            <mxPoint x="463" y="350" as="sourcePoint" />
            <mxPoint x="495" y="397" as="targetPoint" />
          </mxGeometry>
        </mxCell>
      </root>
    </mxGraphModel>
  </diagram>
</mxfile>
